<svg width="26" height="26" viewBox="0 0 26 26" fill="none" xmlns="http://www.w3.org/2000/svg">
<path fill-rule="evenodd" clip-rule="evenodd" d="M16.4214 18.2921H10.1217C9.67323 18.2921 9.30923 17.9281 9.30923 17.4796C9.30923 17.0311 9.67323 16.6671 10.1217 16.6671H16.4214C16.8699 16.6671 17.2339 17.0311 17.2339 17.4796C17.2339 17.9281 16.8699 18.2921 16.4214 18.2921ZM21.1241 6.67117C20.7309 6.3245 20.2834 5.93233 19.7504 5.43942C19.5089 5.24442 19.2445 5.02125 18.9639 4.78508C17.3823 3.4515 15.2156 1.625 13.2407 1.625C11.2885 1.625 9.26157 3.34967 7.63332 4.73525C7.33215 4.99092 7.05048 5.23142 6.7634 5.46433C6.25857 5.93233 5.81115 6.32558 5.41682 6.67333C2.8309 8.94942 2.34448 9.54633 2.34448 14.8558C2.34448 24.375 5.09723 24.375 13.271 24.375C21.4437 24.375 24.1975 24.375 24.1975 14.8558C24.1975 9.54525 23.7111 8.94833 21.1241 6.67117Z" fill="#08633D"/>
</svg>
